<?xml version="1.0" encoding="UTF-8"?>
<svg id="Capa_2" data-name="Capa 2" xmlns="http://www.w3.org/2000/svg" xmlns:xlink="http://www.w3.org/1999/xlink" viewBox="0 0 2225.95 439.02">
  <defs>
    <style>
      .cls-1, .cls-2, .cls-3 {
        fill: none;
      }

      .cls-4 {
        clip-path: url(#clippath-1);
      }

      .cls-2 {
        stroke: #03828a;
        stroke-width: 2.13px;
      }

      .cls-2, .cls-3 {
        stroke-miterlimit: 10;
      }

      .cls-3 {
        stroke: #045654;
        stroke-width: 2.83px;
      }

      .cls-5 {
        clip-path: url(#clippath);
      }
    </style>
    <clipPath id="clippath">
      <path class="cls-1" d="M2225.95,237.09c-269.29,67.38-474.04,100.72-736.57,23.76-180.36-51.66-342.43-138.63-521.78-194.73C629.36-42.14,362.78-2.62,9.55,78.62v52.59C362.78,49.97,629.36,10.45,967.6,118.71c179.35,56.1,341.41,143.08,521.78,194.73,262.54,76.96,467.29,43.62,736.57-23.76v-52.59Z"/>
    </clipPath>
    <clipPath id="clippath-1">
      <path class="cls-1" d="M2216.4,273.49c-269.29,67.38-474.04,100.72-736.57,23.76-180.36-51.66-342.43-138.63-521.78-194.73C619.81-5.74,353.23,33.78,0,115.02v97.47c353.23-81.24,619.81-120.76,958.05-12.51,179.35,56.1,341.41,143.08,521.78,194.73,262.54,76.96,467.29,43.62,736.57-23.76v-97.47Z"/>
    </clipPath>
  </defs>
  <g id="Capa_1-2" data-name="Capa 1">
    <g>
      <g class="cls-5">
        <g>
          <line class="cls-3" x1="2219.21" y1="-429.95" x2="2219.21" y2="873.04"/>
          <line class="cls-3" x1="2200.37" y1="-429.95" x2="2200.37" y2="873.04"/>
          <line class="cls-3" x1="2181.53" y1="-429.95" x2="2181.53" y2="873.04"/>
          <line class="cls-3" x1="2162.68" y1="-429.95" x2="2162.68" y2="873.04"/>
          <line class="cls-3" x1="2143.84" y1="-429.95" x2="2143.84" y2="873.04"/>
          <line class="cls-3" x1="2125" y1="-429.95" x2="2125" y2="873.04"/>
          <line class="cls-3" x1="2106.16" y1="-429.95" x2="2106.16" y2="873.04"/>
          <line class="cls-3" x1="2087.31" y1="-429.95" x2="2087.31" y2="873.04"/>
          <line class="cls-3" x1="2068.47" y1="-429.95" x2="2068.47" y2="873.04"/>
          <line class="cls-3" x1="2049.63" y1="-429.95" x2="2049.63" y2="873.04"/>
          <line class="cls-3" x1="2030.78" y1="-429.95" x2="2030.78" y2="873.04"/>
          <line class="cls-3" x1="2011.94" y1="-429.95" x2="2011.94" y2="873.04"/>
          <line class="cls-3" x1="1993.1" y1="-429.95" x2="1993.1" y2="873.04"/>
          <line class="cls-3" x1="1974.26" y1="-429.95" x2="1974.26" y2="873.04"/>
          <line class="cls-3" x1="1955.41" y1="-429.95" x2="1955.41" y2="873.04"/>
          <line class="cls-3" x1="1936.57" y1="-429.95" x2="1936.57" y2="873.04"/>
          <line class="cls-3" x1="1917.73" y1="-429.95" x2="1917.73" y2="873.04"/>
          <line class="cls-3" x1="1898.89" y1="-429.95" x2="1898.89" y2="873.04"/>
          <line class="cls-3" x1="1880.04" y1="-429.95" x2="1880.04" y2="873.04"/>
          <line class="cls-3" x1="1861.2" y1="-429.95" x2="1861.2" y2="873.04"/>
          <line class="cls-3" x1="1842.36" y1="-429.95" x2="1842.36" y2="873.04"/>
          <line class="cls-3" x1="1823.52" y1="-429.95" x2="1823.52" y2="873.04"/>
          <line class="cls-3" x1="1804.67" y1="-429.95" x2="1804.67" y2="873.04"/>
          <line class="cls-3" x1="1785.83" y1="-429.95" x2="1785.83" y2="873.04"/>
          <line class="cls-3" x1="1766.99" y1="-429.95" x2="1766.99" y2="873.04"/>
          <line class="cls-3" x1="1748.14" y1="-429.95" x2="1748.14" y2="873.04"/>
          <line class="cls-3" x1="1729.3" y1="-429.95" x2="1729.3" y2="873.04"/>
          <line class="cls-3" x1="1710.46" y1="-429.95" x2="1710.46" y2="873.04"/>
          <line class="cls-3" x1="1691.62" y1="-429.95" x2="1691.62" y2="873.04"/>
          <line class="cls-3" x1="1672.77" y1="-429.95" x2="1672.77" y2="873.04"/>
          <line class="cls-3" x1="1653.93" y1="-429.95" x2="1653.93" y2="873.04"/>
          <line class="cls-3" x1="1635.09" y1="-429.95" x2="1635.09" y2="873.04"/>
          <line class="cls-3" x1="1616.25" y1="-429.95" x2="1616.25" y2="873.04"/>
          <line class="cls-3" x1="1597.4" y1="-429.95" x2="1597.4" y2="873.04"/>
          <line class="cls-3" x1="1578.56" y1="-429.95" x2="1578.56" y2="873.04"/>
          <line class="cls-3" x1="1559.72" y1="-429.95" x2="1559.72" y2="873.04"/>
          <line class="cls-3" x1="1540.87" y1="-429.95" x2="1540.87" y2="873.04"/>
          <line class="cls-3" x1="1522.03" y1="-429.95" x2="1522.03" y2="873.04"/>
          <line class="cls-3" x1="1503.19" y1="-429.95" x2="1503.19" y2="873.04"/>
          <line class="cls-3" x1="1484.35" y1="-429.95" x2="1484.35" y2="873.04"/>
          <line class="cls-3" x1="1465.5" y1="-429.95" x2="1465.5" y2="873.04"/>
          <line class="cls-3" x1="1446.66" y1="-429.95" x2="1446.66" y2="873.04"/>
          <line class="cls-3" x1="1427.82" y1="-429.95" x2="1427.82" y2="873.04"/>
          <line class="cls-3" x1="1408.98" y1="-429.95" x2="1408.98" y2="873.04"/>
          <line class="cls-3" x1="1390.13" y1="-429.95" x2="1390.13" y2="873.04"/>
          <line class="cls-3" x1="1371.29" y1="-429.95" x2="1371.29" y2="873.04"/>
          <line class="cls-3" x1="1352.45" y1="-429.95" x2="1352.45" y2="873.04"/>
          <line class="cls-3" x1="1333.61" y1="-429.95" x2="1333.61" y2="873.04"/>
          <line class="cls-3" x1="1258.23" y1="-429.95" x2="1258.23" y2="873.04"/>
          <line class="cls-3" x1="1277.08" y1="-429.95" x2="1277.08" y2="873.04"/>
          <line class="cls-3" x1="1295.92" y1="-429.95" x2="1295.92" y2="873.04"/>
          <line class="cls-3" x1="1314.76" y1="-429.95" x2="1314.76" y2="873.04"/>
          <line class="cls-3" x1="1239.39" y1="-429.95" x2="1239.39" y2="873.04"/>
          <line class="cls-3" x1="1220.55" y1="-429.95" x2="1220.55" y2="873.04"/>
          <line class="cls-3" x1="1201.71" y1="-429.95" x2="1201.71" y2="873.04"/>
          <line class="cls-3" x1="1182.86" y1="-429.95" x2="1182.86" y2="873.04"/>
          <line class="cls-3" x1="1164.02" y1="-429.95" x2="1164.02" y2="873.04"/>
          <line class="cls-3" x1="1145.18" y1="-429.95" x2="1145.18" y2="873.04"/>
          <line class="cls-3" x1="1126.34" y1="-429.95" x2="1126.34" y2="873.04"/>
          <line class="cls-3" x1="1107.49" y1="-429.95" x2="1107.49" y2="873.04"/>
          <line class="cls-3" x1="1088.65" y1="-429.95" x2="1088.65" y2="873.04"/>
          <line class="cls-3" x1="1069.81" y1="-429.95" x2="1069.81" y2="873.04"/>
          <line class="cls-3" x1="1050.96" y1="-429.95" x2="1050.97" y2="873.04"/>
          <line class="cls-3" x1="1032.12" y1="-429.95" x2="1032.12" y2="873.04"/>
          <line class="cls-3" x1="1013.28" y1="-429.95" x2="1013.28" y2="873.04"/>
          <line class="cls-3" x1="994.44" y1="-429.95" x2="994.44" y2="873.04"/>
          <line class="cls-3" x1="975.59" y1="-429.95" x2="975.59" y2="873.04"/>
          <line class="cls-3" x1="956.75" y1="-429.95" x2="956.75" y2="873.04"/>
          <line class="cls-3" x1="937.91" y1="-429.95" x2="937.91" y2="873.04"/>
          <line class="cls-3" x1="919.07" y1="-429.95" x2="919.07" y2="873.04"/>
          <line class="cls-3" x1="900.22" y1="-429.95" x2="900.22" y2="873.04"/>
          <line class="cls-3" x1="881.38" y1="-429.95" x2="881.38" y2="873.04"/>
          <line class="cls-3" x1="862.54" y1="-429.95" x2="862.54" y2="873.04"/>
          <line class="cls-3" x1="843.7" y1="-429.95" x2="843.7" y2="873.04"/>
          <line class="cls-3" x1="824.85" y1="-429.95" x2="824.85" y2="873.04"/>
          <line class="cls-3" x1="806.01" y1="-429.95" x2="806.01" y2="873.04"/>
          <line class="cls-3" x1="787.17" y1="-429.95" x2="787.17" y2="873.04"/>
          <line class="cls-3" x1="768.32" y1="-429.95" x2="768.32" y2="873.04"/>
          <line class="cls-3" x1="749.48" y1="-429.95" x2="749.48" y2="873.04"/>
          <line class="cls-3" x1="730.64" y1="-429.95" x2="730.64" y2="873.04"/>
          <line class="cls-3" x1="711.8" y1="-429.95" x2="711.8" y2="873.04"/>
          <line class="cls-3" x1="692.95" y1="-429.95" x2="692.95" y2="873.04"/>
          <line class="cls-3" x1="674.11" y1="-429.95" x2="674.11" y2="873.04"/>
          <line class="cls-3" x1="655.27" y1="-429.95" x2="655.27" y2="873.04"/>
          <line class="cls-3" x1="636.43" y1="-429.95" x2="636.43" y2="873.04"/>
          <line class="cls-3" x1="617.58" y1="-429.95" x2="617.58" y2="873.04"/>
          <line class="cls-3" x1="598.74" y1="-429.95" x2="598.74" y2="873.04"/>
          <line class="cls-3" x1="579.9" y1="-429.95" x2="579.9" y2="873.04"/>
          <line class="cls-3" x1="561.06" y1="-429.95" x2="561.06" y2="873.04"/>
          <line class="cls-3" x1="542.21" y1="-429.95" x2="542.21" y2="873.04"/>
          <line class="cls-3" x1="523.37" y1="-429.95" x2="523.37" y2="873.04"/>
          <line class="cls-3" x1="504.53" y1="-429.95" x2="504.53" y2="873.04"/>
          <line class="cls-3" x1="485.68" y1="-429.95" x2="485.68" y2="873.04"/>
          <line class="cls-3" x1="466.84" y1="-429.95" x2="466.84" y2="873.04"/>
          <line class="cls-3" x1="448" y1="-429.95" x2="448" y2="873.04"/>
          <line class="cls-3" x1="429.16" y1="-429.95" x2="429.16" y2="873.04"/>
          <line class="cls-3" x1="410.31" y1="-429.95" x2="410.31" y2="873.04"/>
          <line class="cls-3" x1="391.47" y1="-429.95" x2="391.47" y2="873.04"/>
          <line class="cls-3" x1="372.63" y1="-429.95" x2="372.63" y2="873.04"/>
          <line class="cls-3" x1="353.79" y1="-429.95" x2="353.79" y2="873.04"/>
          <line class="cls-3" x1="334.94" y1="-429.95" x2="334.94" y2="873.04"/>
          <line class="cls-3" x1="316.1" y1="-429.95" x2="316.1" y2="873.04"/>
          <line class="cls-3" x1="297.26" y1="-429.95" x2="297.26" y2="873.04"/>
          <line class="cls-3" x1="278.41" y1="-429.95" x2="278.41" y2="873.04"/>
          <line class="cls-3" x1="259.57" y1="-429.95" x2="259.57" y2="873.04"/>
          <line class="cls-3" x1="240.73" y1="-429.95" x2="240.73" y2="873.04"/>
          <line class="cls-3" x1="221.89" y1="-429.95" x2="221.89" y2="873.04"/>
          <line class="cls-3" x1="203.04" y1="-429.95" x2="203.04" y2="873.04"/>
          <line class="cls-3" x1="184.2" y1="-429.95" x2="184.2" y2="873.04"/>
          <line class="cls-3" x1="165.36" y1="-429.95" x2="165.36" y2="873.04"/>
          <line class="cls-3" x1="146.52" y1="-429.95" x2="146.52" y2="873.04"/>
          <line class="cls-3" x1="127.67" y1="-429.95" x2="127.67" y2="873.04"/>
          <line class="cls-3" x1="108.83" y1="-429.95" x2="108.83" y2="873.04"/>
          <line class="cls-3" x1="89.99" y1="-429.95" x2="89.99" y2="873.04"/>
          <line class="cls-3" x1="71.15" y1="-429.95" x2="71.15" y2="873.04"/>
          <line class="cls-3" x1="52.3" y1="-429.95" x2="52.3" y2="873.04"/>
        </g>
      </g>
      <g class="cls-4">
        <g>
          <line class="cls-2" x1="2209.66" y1="-393.55" x2="2209.66" y2="909.44"/>
          <line class="cls-2" x1="2190.81" y1="-393.55" x2="2190.81" y2="909.44"/>
          <line class="cls-2" x1="2171.97" y1="-393.55" x2="2171.97" y2="909.44"/>
          <line class="cls-2" x1="2153.13" y1="-393.55" x2="2153.13" y2="909.44"/>
          <line class="cls-2" x1="2134.29" y1="-393.55" x2="2134.29" y2="909.44"/>
          <line class="cls-2" x1="2115.44" y1="-393.55" x2="2115.44" y2="909.44"/>
          <line class="cls-2" x1="2096.6" y1="-393.55" x2="2096.6" y2="909.44"/>
          <line class="cls-2" x1="2077.76" y1="-393.55" x2="2077.76" y2="909.44"/>
          <line class="cls-2" x1="2058.92" y1="-393.55" x2="2058.92" y2="909.44"/>
          <line class="cls-2" x1="2040.07" y1="-393.55" x2="2040.07" y2="909.44"/>
          <line class="cls-2" x1="2021.23" y1="-393.55" x2="2021.23" y2="909.44"/>
          <line class="cls-2" x1="2002.39" y1="-393.55" x2="2002.39" y2="909.44"/>
          <line class="cls-2" x1="1983.54" y1="-393.55" x2="1983.54" y2="909.44"/>
          <line class="cls-2" x1="1964.7" y1="-393.55" x2="1964.7" y2="909.44"/>
          <line class="cls-2" x1="1945.86" y1="-393.55" x2="1945.86" y2="909.44"/>
          <line class="cls-2" x1="1927.02" y1="-393.55" x2="1927.02" y2="909.44"/>
          <line class="cls-2" x1="1908.17" y1="-393.55" x2="1908.17" y2="909.44"/>
          <line class="cls-2" x1="1889.33" y1="-393.55" x2="1889.33" y2="909.44"/>
          <line class="cls-2" x1="1870.49" y1="-393.55" x2="1870.49" y2="909.44"/>
          <line class="cls-2" x1="1851.65" y1="-393.55" x2="1851.65" y2="909.44"/>
          <line class="cls-2" x1="1832.8" y1="-393.55" x2="1832.8" y2="909.44"/>
          <line class="cls-2" x1="1813.96" y1="-393.55" x2="1813.96" y2="909.44"/>
          <line class="cls-2" x1="1795.12" y1="-393.55" x2="1795.12" y2="909.44"/>
          <line class="cls-2" x1="1776.28" y1="-393.55" x2="1776.28" y2="909.44"/>
          <line class="cls-2" x1="1757.43" y1="-393.55" x2="1757.43" y2="909.44"/>
          <line class="cls-2" x1="1738.59" y1="-393.55" x2="1738.59" y2="909.44"/>
          <line class="cls-2" x1="1719.75" y1="-393.55" x2="1719.75" y2="909.44"/>
          <line class="cls-2" x1="1700.9" y1="-393.55" x2="1700.9" y2="909.44"/>
          <line class="cls-2" x1="1682.06" y1="-393.55" x2="1682.06" y2="909.44"/>
          <line class="cls-2" x1="1663.22" y1="-393.55" x2="1663.22" y2="909.44"/>
          <line class="cls-2" x1="1644.38" y1="-393.55" x2="1644.38" y2="909.44"/>
          <line class="cls-2" x1="1625.53" y1="-393.55" x2="1625.53" y2="909.44"/>
          <line class="cls-2" x1="1606.69" y1="-393.55" x2="1606.69" y2="909.44"/>
          <line class="cls-2" x1="1587.85" y1="-393.55" x2="1587.85" y2="909.44"/>
          <line class="cls-2" x1="1569.01" y1="-393.55" x2="1569.01" y2="909.44"/>
          <line class="cls-2" x1="1550.16" y1="-393.55" x2="1550.16" y2="909.44"/>
          <line class="cls-2" x1="1531.32" y1="-393.55" x2="1531.32" y2="909.44"/>
          <line class="cls-2" x1="1512.48" y1="-393.55" x2="1512.48" y2="909.44"/>
          <line class="cls-2" x1="1493.63" y1="-393.55" x2="1493.63" y2="909.44"/>
          <line class="cls-2" x1="1474.79" y1="-393.55" x2="1474.79" y2="909.44"/>
          <line class="cls-2" x1="1455.95" y1="-393.55" x2="1455.95" y2="909.44"/>
          <line class="cls-2" x1="1437.11" y1="-393.55" x2="1437.11" y2="909.44"/>
          <line class="cls-2" x1="1418.26" y1="-393.55" x2="1418.26" y2="909.44"/>
          <line class="cls-2" x1="1399.42" y1="-393.55" x2="1399.42" y2="909.44"/>
          <line class="cls-2" x1="1380.58" y1="-393.55" x2="1380.58" y2="909.44"/>
          <line class="cls-2" x1="1361.74" y1="-393.55" x2="1361.74" y2="909.44"/>
          <line class="cls-2" x1="1342.89" y1="-393.55" x2="1342.89" y2="909.44"/>
          <line class="cls-2" x1="1324.05" y1="-393.55" x2="1324.05" y2="909.44"/>
          <line class="cls-2" x1="1248.68" y1="-393.55" x2="1248.68" y2="909.44"/>
          <line class="cls-2" x1="1267.52" y1="-393.55" x2="1267.52" y2="909.44"/>
          <line class="cls-2" x1="1286.37" y1="-393.55" x2="1286.37" y2="909.44"/>
          <line class="cls-2" x1="1305.21" y1="-393.55" x2="1305.21" y2="909.44"/>
          <line class="cls-2" x1="1229.84" y1="-393.55" x2="1229.84" y2="909.44"/>
          <line class="cls-2" x1="1210.99" y1="-393.55" x2="1210.99" y2="909.44"/>
          <line class="cls-2" x1="1192.15" y1="-393.55" x2="1192.15" y2="909.44"/>
          <line class="cls-2" x1="1173.31" y1="-393.55" x2="1173.31" y2="909.44"/>
          <line class="cls-2" x1="1154.47" y1="-393.55" x2="1154.47" y2="909.44"/>
          <line class="cls-2" x1="1135.62" y1="-393.55" x2="1135.62" y2="909.44"/>
          <line class="cls-2" x1="1116.78" y1="-393.55" x2="1116.78" y2="909.44"/>
          <line class="cls-2" x1="1097.94" y1="-393.55" x2="1097.94" y2="909.44"/>
          <line class="cls-2" x1="1079.1" y1="-393.55" x2="1079.1" y2="909.44"/>
          <line class="cls-2" x1="1060.25" y1="-393.55" x2="1060.25" y2="909.44"/>
          <line class="cls-2" x1="1041.41" y1="-393.55" x2="1041.41" y2="909.44"/>
          <line class="cls-2" x1="1022.57" y1="-393.55" x2="1022.57" y2="909.44"/>
          <line class="cls-2" x1="1003.73" y1="-393.55" x2="1003.73" y2="909.44"/>
          <line class="cls-2" x1="984.88" y1="-393.55" x2="984.88" y2="909.44"/>
          <line class="cls-2" x1="966.04" y1="-393.55" x2="966.04" y2="909.44"/>
          <line class="cls-2" x1="947.2" y1="-393.55" x2="947.2" y2="909.44"/>
          <line class="cls-2" x1="928.35" y1="-393.55" x2="928.35" y2="909.44"/>
          <line class="cls-2" x1="909.51" y1="-393.55" x2="909.51" y2="909.44"/>
          <line class="cls-2" x1="890.67" y1="-393.55" x2="890.67" y2="909.44"/>
          <line class="cls-2" x1="871.83" y1="-393.55" x2="871.83" y2="909.44"/>
          <line class="cls-2" x1="852.98" y1="-393.55" x2="852.98" y2="909.44"/>
          <line class="cls-2" x1="834.14" y1="-393.55" x2="834.14" y2="909.44"/>
          <line class="cls-2" x1="815.3" y1="-393.55" x2="815.3" y2="909.44"/>
          <line class="cls-2" x1="796.46" y1="-393.55" x2="796.46" y2="909.44"/>
          <line class="cls-2" x1="777.61" y1="-393.55" x2="777.61" y2="909.44"/>
          <line class="cls-2" x1="758.77" y1="-393.55" x2="758.77" y2="909.44"/>
          <line class="cls-2" x1="739.93" y1="-393.55" x2="739.93" y2="909.44"/>
          <line class="cls-2" x1="721.08" y1="-393.55" x2="721.08" y2="909.44"/>
          <line class="cls-2" x1="702.24" y1="-393.55" x2="702.24" y2="909.44"/>
          <line class="cls-2" x1="683.4" y1="-393.55" x2="683.4" y2="909.44"/>
          <line class="cls-2" x1="664.56" y1="-393.55" x2="664.56" y2="909.44"/>
          <line class="cls-2" x1="645.71" y1="-393.55" x2="645.71" y2="909.44"/>
          <line class="cls-2" x1="626.87" y1="-393.55" x2="626.87" y2="909.44"/>
          <line class="cls-2" x1="608.03" y1="-393.55" x2="608.03" y2="909.44"/>
          <line class="cls-2" x1="589.19" y1="-393.55" x2="589.19" y2="909.44"/>
          <line class="cls-2" x1="570.34" y1="-393.55" x2="570.34" y2="909.44"/>
          <line class="cls-2" x1="551.5" y1="-393.55" x2="551.5" y2="909.44"/>
          <line class="cls-2" x1="532.66" y1="-393.55" x2="532.66" y2="909.44"/>
          <line class="cls-2" x1="513.82" y1="-393.55" x2="513.82" y2="909.44"/>
          <line class="cls-2" x1="494.97" y1="-393.55" x2="494.97" y2="909.44"/>
          <line class="cls-2" x1="476.13" y1="-393.55" x2="476.13" y2="909.44"/>
          <line class="cls-2" x1="457.29" y1="-393.55" x2="457.29" y2="909.44"/>
          <line class="cls-2" x1="438.44" y1="-393.55" x2="438.44" y2="909.44"/>
          <line class="cls-2" x1="419.6" y1="-393.55" x2="419.6" y2="909.44"/>
          <line class="cls-2" x1="400.76" y1="-393.55" x2="400.76" y2="909.44"/>
          <line class="cls-2" x1="381.92" y1="-393.55" x2="381.92" y2="909.44"/>
          <line class="cls-2" x1="363.07" y1="-393.55" x2="363.07" y2="909.44"/>
          <line class="cls-2" x1="344.23" y1="-393.55" x2="344.23" y2="909.44"/>
          <line class="cls-2" x1="325.39" y1="-393.55" x2="325.39" y2="909.44"/>
          <line class="cls-2" x1="306.55" y1="-393.55" x2="306.55" y2="909.44"/>
          <line class="cls-2" x1="287.7" y1="-393.55" x2="287.7" y2="909.44"/>
          <line class="cls-2" x1="268.86" y1="-393.55" x2="268.86" y2="909.44"/>
          <line class="cls-2" x1="250.02" y1="-393.55" x2="250.02" y2="909.44"/>
          <line class="cls-2" x1="231.17" y1="-393.55" x2="231.17" y2="909.44"/>
          <line class="cls-2" x1="212.33" y1="-393.55" x2="212.33" y2="909.44"/>
          <line class="cls-2" x1="193.49" y1="-393.55" x2="193.49" y2="909.44"/>
          <line class="cls-2" x1="174.65" y1="-393.55" x2="174.65" y2="909.44"/>
          <line class="cls-2" x1="155.8" y1="-393.55" x2="155.8" y2="909.44"/>
          <line class="cls-2" x1="136.96" y1="-393.55" x2="136.96" y2="909.44"/>
          <line class="cls-2" x1="118.12" y1="-393.55" x2="118.12" y2="909.44"/>
          <line class="cls-2" x1="99.28" y1="-393.55" x2="99.28" y2="909.44"/>
          <line class="cls-2" x1="80.43" y1="-393.55" x2="80.43" y2="909.44"/>
          <line class="cls-2" x1="61.59" y1="-393.55" x2="61.59" y2="909.44"/>
          <line class="cls-2" x1="42.75" y1="-393.55" x2="42.75" y2="909.44"/>
        </g>
      </g>
    </g>
  </g>
</svg>