<?xml version="1.0" encoding="UTF-8"?>
<svg id="Capa_2" data-name="Capa 2" xmlns="http://www.w3.org/2000/svg" xmlns:xlink="http://www.w3.org/1999/xlink" viewBox="0 0 2116.48 516.97">
  <defs>
    <style>
      .cls-1, .cls-2, .cls-3 {
        fill: none;
      }

      .cls-2 {
        stroke-width: 3px;
      }

      .cls-2, .cls-3 {
        stroke: #084d6e;
        stroke-miterlimit: 10;
      }

      .cls-4 {
        clip-path: url(#clippath-1);
      }

      .cls-5 {
        clip-path: url(#clippath);
      }
    </style>
    <clipPath id="clippath">
      <path class="cls-1" d="M2039.92,359.32c-143.16-56.14-285.91-112.41-435.49-145.48-135.49-28.46-277.8-24.24-409.17,19.08-131.39,42.06-244.38,112.74-379.15,141.45-61.56,13.62-124.45,18.86-188.12,15.91-135.21-6.12-267.68-48.15-395.83-92.72-76.46-27.08-153.55-54.73-230.43-82.42l-1.74-33.64c81.35,19.45,162.94,38.85,243.8,57.73,132.3,30.09,268.62,57.18,403.67,48.28,63.6-4.12,125.53-16.31,185.2-36.67,130.75-43.47,235.22-126.24,361.13-182.6C1319.55,10.63,1460.52-9.33,1598.33,3.94c145.08,15.52,286.35,52.64,427.77,90.63l13.82,264.75Z"/>
    </clipPath>
    <clipPath id="clippath-1">
      <path class="cls-1" d="M2116.48,467.45c-148.62-56.28-296.82-112.71-451.79-145.08-140.36-27.78-287.37-21.7-422.6,24.66-135.27,45.05-251.18,119.46-390.1,150.76-63.45,14.82-128.38,21-194.21,18.72-139.8-4.69-277.21-46.53-410.17-91.04-79.34-27.06-159.34-54.71-239.12-82.39l-2.21-34.74c84.3,19.11,168.85,38.18,252.64,56.71,137.08,29.5,278.28,55.84,417.74,45.02,65.68-5.03,129.52-18.37,190.94-40.13,134.59-46.5,241.55-133.3,370.99-193.06,129.26-61.06,274.7-83.39,417.27-71.34,150.12,14.28,296.55,50.94,443.15,88.49l17.48,273.42Z"/>
    </clipPath>
  </defs>
  <g id="Capa_1-2" data-name="Capa 1">
    <g>
      <g class="cls-5">
        <g>
          <line class="cls-3" x1="171.11" y1="1374.55" x2="66.28" y2="-647.34"/>
          <line class="cls-3" x1="141.69" y1="1376.07" x2="36.86" y2="-645.81"/>
          <line class="cls-3" x1="112.27" y1="1377.6" x2="7.43" y2="-644.29"/>
          <line class="cls-3" x1="200.53" y1="1373.02" x2="95.7" y2="-648.86"/>
          <line class="cls-3" x1="229.96" y1="1371.5" x2="125.12" y2="-650.39"/>
          <line class="cls-3" x1="259.38" y1="1369.97" x2="154.55" y2="-651.91"/>
          <line class="cls-3" x1="288.8" y1="1368.45" x2="183.97" y2="-653.44"/>
          <line class="cls-3" x1="318.23" y1="1366.92" x2="213.39" y2="-654.96"/>
          <line class="cls-3" x1="347.65" y1="1365.39" x2="242.81" y2="-656.49"/>
          <line class="cls-3" x1="377.07" y1="1363.87" x2="272.24" y2="-658.02"/>
          <line class="cls-3" x1="406.49" y1="1362.34" x2="301.66" y2="-659.54"/>
          <line class="cls-3" x1="435.92" y1="1360.82" x2="331.08" y2="-661.07"/>
          <line class="cls-3" x1="465.34" y1="1359.29" x2="360.51" y2="-662.59"/>
          <line class="cls-3" x1="494.76" y1="1357.77" x2="389.93" y2="-664.12"/>
          <line class="cls-3" x1="524.19" y1="1356.24" x2="419.35" y2="-665.64"/>
          <line class="cls-3" x1="553.61" y1="1354.72" x2="448.77" y2="-667.17"/>
          <line class="cls-3" x1="583.03" y1="1353.19" x2="478.2" y2="-668.69"/>
          <line class="cls-3" x1="612.45" y1="1351.66" x2="507.62" y2="-670.22"/>
          <line class="cls-3" x1="641.88" y1="1350.14" x2="537.04" y2="-671.75"/>
          <line class="cls-3" x1="671.3" y1="1348.61" x2="566.47" y2="-673.27"/>
          <line class="cls-3" x1="700.72" y1="1347.09" x2="595.89" y2="-674.8"/>
          <line class="cls-3" x1="730.14" y1="1345.56" x2="625.31" y2="-676.32"/>
          <line class="cls-3" x1="759.57" y1="1344.04" x2="654.73" y2="-677.85"/>
          <line class="cls-3" x1="788.99" y1="1342.51" x2="684.16" y2="-679.37"/>
          <line class="cls-3" x1="818.41" y1="1340.99" x2="713.58" y2="-680.9"/>
          <line class="cls-3" x1="847.84" y1="1339.46" x2="743" y2="-682.42"/>
          <line class="cls-3" x1="877.26" y1="1337.93" x2="772.43" y2="-683.95"/>
          <line class="cls-3" x1="906.68" y1="1336.41" x2="801.85" y2="-685.48"/>
          <line class="cls-3" x1="936.1" y1="1334.88" x2="831.27" y2="-687"/>
          <line class="cls-3" x1="965.53" y1="1333.36" x2="860.69" y2="-688.53"/>
          <line class="cls-3" x1="994.95" y1="1331.83" x2="890.12" y2="-690.05"/>
          <line class="cls-3" x1="1024.37" y1="1330.31" x2="919.54" y2="-691.58"/>
          <line class="cls-3" x1="1053.8" y1="1328.78" x2="948.96" y2="-693.1"/>
          <line class="cls-3" x1="1083.22" y1="1327.26" x2="978.39" y2="-694.63"/>
          <line class="cls-3" x1="1112.64" y1="1325.73" x2="1007.81" y2="-696.15"/>
          <line class="cls-3" x1="1142.06" y1="1324.2" x2="1037.23" y2="-697.68"/>
          <line class="cls-3" x1="1171.49" y1="1322.68" x2="1066.65" y2="-699.21"/>
          <line class="cls-3" x1="1200.91" y1="1321.15" x2="1096.08" y2="-700.73"/>
          <line class="cls-3" x1="1230.33" y1="1319.63" x2="1125.5" y2="-702.26"/>
          <line class="cls-3" x1="1259.76" y1="1318.1" x2="1154.92" y2="-703.78"/>
          <line class="cls-3" x1="1289.18" y1="1316.58" x2="1184.34" y2="-705.31"/>
          <line class="cls-3" x1="1318.6" y1="1315.05" x2="1213.77" y2="-706.83"/>
          <line class="cls-3" x1="1348.02" y1="1313.53" x2="1243.19" y2="-708.36"/>
          <line class="cls-3" x1="1377.45" y1="1312" x2="1272.61" y2="-709.88"/>
          <line class="cls-3" x1="1406.87" y1="1310.47" x2="1302.04" y2="-711.41"/>
          <line class="cls-3" x1="1436.29" y1="1308.95" x2="1331.46" y2="-712.94"/>
          <line class="cls-3" x1="1465.72" y1="1307.42" x2="1360.88" y2="-714.46"/>
          <line class="cls-3" x1="1495.14" y1="1305.9" x2="1390.3" y2="-715.99"/>
          <line class="cls-3" x1="1524.56" y1="1304.37" x2="1419.73" y2="-717.51"/>
          <line class="cls-3" x1="1553.98" y1="1302.85" x2="1449.15" y2="-719.04"/>
          <line class="cls-3" x1="1583.41" y1="1301.32" x2="1478.57" y2="-720.56"/>
          <line class="cls-3" x1="1612.83" y1="1299.8" x2="1508" y2="-722.09"/>
          <line class="cls-3" x1="1642.25" y1="1298.27" x2="1537.42" y2="-723.61"/>
          <line class="cls-3" x1="1671.67" y1="1296.74" x2="1566.84" y2="-725.14"/>
          <line class="cls-3" x1="1701.1" y1="1295.22" x2="1596.26" y2="-726.67"/>
          <line class="cls-3" x1="1730.52" y1="1293.69" x2="1625.69" y2="-728.19"/>
          <line class="cls-3" x1="1759.94" y1="1292.17" x2="1655.11" y2="-729.72"/>
          <line class="cls-3" x1="1789.37" y1="1290.64" x2="1684.53" y2="-731.24"/>
          <line class="cls-3" x1="1818.79" y1="1289.12" x2="1713.96" y2="-732.77"/>
          <line class="cls-3" x1="1848.21" y1="1287.59" x2="1743.38" y2="-734.29"/>
          <line class="cls-3" x1="1877.63" y1="1286.07" x2="1772.8" y2="-735.82"/>
          <line class="cls-3" x1="1907.06" y1="1284.54" x2="1802.22" y2="-737.34"/>
          <line class="cls-3" x1="1936.48" y1="1283.02" x2="1831.65" y2="-738.87"/>
          <line class="cls-3" x1="1965.9" y1="1281.49" x2="1861.07" y2="-740.4"/>
          <line class="cls-3" x1="1995.33" y1="1279.96" x2="1890.49" y2="-741.92"/>
          <line class="cls-3" x1="2024.75" y1="1278.44" x2="1919.92" y2="-743.45"/>
          <line class="cls-3" x1="2054.17" y1="1276.91" x2="1949.34" y2="-744.97"/>
        </g>
      </g>
      <g class="cls-4">
        <g>
          <line class="cls-2" x1="197.51" y1="1540.52" x2="64.75" y2="-547.64"/>
          <line class="cls-2" x1="167.12" y1="1542.45" x2="34.36" y2="-545.7"/>
          <line class="cls-2" x1="136.73" y1="1544.38" x2="3.97" y2="-543.77"/>
          <line class="cls-2" x1="227.89" y1="1538.59" x2="95.13" y2="-549.57"/>
          <line class="cls-2" x1="258.28" y1="1536.66" x2="125.52" y2="-551.5"/>
          <line class="cls-2" x1="288.67" y1="1534.72" x2="155.91" y2="-553.43"/>
          <line class="cls-2" x1="319.06" y1="1532.79" x2="186.3" y2="-555.36"/>
          <line class="cls-2" x1="349.44" y1="1530.86" x2="216.68" y2="-557.3"/>
          <line class="cls-2" x1="379.83" y1="1528.93" x2="247.07" y2="-559.23"/>
          <line class="cls-2" x1="410.22" y1="1527" x2="277.46" y2="-561.16"/>
          <line class="cls-2" x1="440.6" y1="1525.06" x2="307.84" y2="-563.09"/>
          <line class="cls-2" x1="470.99" y1="1523.13" x2="338.23" y2="-565.02"/>
          <line class="cls-2" x1="501.38" y1="1521.2" x2="368.62" y2="-566.96"/>
          <line class="cls-2" x1="531.77" y1="1519.27" x2="399.01" y2="-568.89"/>
          <line class="cls-2" x1="562.15" y1="1517.34" x2="429.39" y2="-570.82"/>
          <line class="cls-2" x1="592.54" y1="1515.4" x2="459.78" y2="-572.75"/>
          <line class="cls-2" x1="622.93" y1="1513.47" x2="490.17" y2="-574.68"/>
          <line class="cls-2" x1="653.31" y1="1511.54" x2="520.56" y2="-576.62"/>
          <line class="cls-2" x1="683.7" y1="1509.61" x2="550.94" y2="-578.55"/>
          <line class="cls-2" x1="714.09" y1="1507.68" x2="581.33" y2="-580.48"/>
          <line class="cls-2" x1="744.48" y1="1505.74" x2="611.72" y2="-582.41"/>
          <line class="cls-2" x1="774.86" y1="1503.81" x2="642.1" y2="-584.34"/>
          <line class="cls-2" x1="805.25" y1="1501.88" x2="672.49" y2="-586.28"/>
          <line class="cls-2" x1="835.64" y1="1499.95" x2="702.88" y2="-588.21"/>
          <line class="cls-2" x1="866.03" y1="1498.02" x2="733.27" y2="-590.14"/>
          <line class="cls-2" x1="896.41" y1="1496.08" x2="763.65" y2="-592.07"/>
          <line class="cls-2" x1="926.8" y1="1494.15" x2="794.04" y2="-594"/>
          <line class="cls-2" x1="957.19" y1="1492.22" x2="824.43" y2="-595.94"/>
          <line class="cls-2" x1="987.57" y1="1490.29" x2="854.81" y2="-597.87"/>
          <line class="cls-2" x1="1017.96" y1="1488.36" x2="885.2" y2="-599.8"/>
          <line class="cls-2" x1="1048.35" y1="1486.43" x2="915.59" y2="-601.73"/>
          <line class="cls-2" x1="1078.74" y1="1484.49" x2="945.98" y2="-603.66"/>
          <line class="cls-2" x1="1109.12" y1="1482.56" x2="976.36" y2="-605.59"/>
          <line class="cls-2" x1="1139.51" y1="1480.63" x2="1006.75" y2="-607.53"/>
          <line class="cls-2" x1="1169.9" y1="1478.7" x2="1037.14" y2="-609.46"/>
          <line class="cls-2" x1="1200.28" y1="1476.77" x2="1067.52" y2="-611.39"/>
          <line class="cls-2" x1="1230.67" y1="1474.83" x2="1097.91" y2="-613.32"/>
          <line class="cls-2" x1="1261.06" y1="1472.9" x2="1128.3" y2="-615.25"/>
          <line class="cls-2" x1="1291.45" y1="1470.97" x2="1158.69" y2="-617.19"/>
          <line class="cls-2" x1="1321.83" y1="1469.04" x2="1189.07" y2="-619.12"/>
          <line class="cls-2" x1="1352.22" y1="1467.11" x2="1219.46" y2="-621.05"/>
          <line class="cls-2" x1="1382.61" y1="1465.17" x2="1249.85" y2="-622.98"/>
          <line class="cls-2" x1="1413" y1="1463.24" x2="1280.24" y2="-624.91"/>
          <line class="cls-2" x1="1443.38" y1="1461.31" x2="1310.62" y2="-626.85"/>
          <line class="cls-2" x1="1473.77" y1="1459.38" x2="1341.01" y2="-628.78"/>
          <line class="cls-2" x1="1504.16" y1="1457.45" x2="1371.4" y2="-630.71"/>
          <line class="cls-2" x1="1534.54" y1="1455.51" x2="1401.78" y2="-632.64"/>
          <line class="cls-2" x1="1564.93" y1="1453.58" x2="1432.17" y2="-634.57"/>
          <line class="cls-2" x1="1595.32" y1="1451.65" x2="1462.56" y2="-636.51"/>
          <line class="cls-2" x1="1625.71" y1="1449.72" x2="1492.95" y2="-638.44"/>
          <line class="cls-2" x1="1656.09" y1="1447.79" x2="1523.33" y2="-640.37"/>
          <line class="cls-2" x1="1686.48" y1="1445.85" x2="1553.72" y2="-642.3"/>
          <line class="cls-2" x1="1716.87" y1="1443.92" x2="1584.11" y2="-644.23"/>
          <line class="cls-2" x1="1747.25" y1="1441.99" x2="1614.49" y2="-646.17"/>
          <line class="cls-2" x1="1777.64" y1="1440.06" x2="1644.88" y2="-648.1"/>
          <line class="cls-2" x1="1808.03" y1="1438.13" x2="1675.27" y2="-650.03"/>
          <line class="cls-2" x1="1838.42" y1="1436.19" x2="1705.66" y2="-651.96"/>
          <line class="cls-2" x1="1868.8" y1="1434.26" x2="1736.04" y2="-653.89"/>
          <line class="cls-2" x1="1899.19" y1="1432.33" x2="1766.43" y2="-655.83"/>
          <line class="cls-2" x1="1929.58" y1="1430.4" x2="1796.82" y2="-657.76"/>
          <line class="cls-2" x1="1959.96" y1="1428.47" x2="1827.21" y2="-659.69"/>
          <line class="cls-2" x1="1990.35" y1="1426.54" x2="1857.59" y2="-661.62"/>
          <line class="cls-2" x1="2020.74" y1="1424.6" x2="1887.98" y2="-663.55"/>
          <line class="cls-2" x1="2051.13" y1="1422.67" x2="1918.37" y2="-665.48"/>
          <line class="cls-2" x1="2081.51" y1="1420.74" x2="1948.75" y2="-667.42"/>
          <line class="cls-2" x1="2111.9" y1="1418.81" x2="1979.14" y2="-669.35"/>
          <line class="cls-2" x1="2142.29" y1="1416.88" x2="2009.53" y2="-671.28"/>
        </g>
      </g>
    </g>
  </g>
</svg>