<?xml version="1.0" encoding="UTF-8"?>
<svg id="Capa_2" data-name="Capa 2" xmlns="http://www.w3.org/2000/svg" xmlns:xlink="http://www.w3.org/1999/xlink" viewBox="0 0 1920 565.8">
  <defs>
    <style>
      .cls-1 {
        stroke: #045654;
        stroke-width: 1.42px;
      }

      .cls-1, .cls-2, .cls-3 {
        fill: none;
      }

      .cls-1, .cls-3 {
        stroke-miterlimit: 10;
      }

      .cls-4 {
        clip-path: url(#clippath-1);
      }

      .cls-3 {
        stroke: #07302f;
        stroke-width: 4.25px;
      }

      .cls-5 {
        clip-path: url(#clippath-2);
      }

      .cls-6 {
        clip-path: url(#clippath);
      }
    </style>
    <clipPath id="clippath">
      <rect class="cls-2" width="1920" height="565.8"/>
    </clipPath>
    <clipPath id="clippath-1">
      <path class="cls-2" d="M2222.45,155.32c-181.69,41.59-368.8,86.11-552.93,128.3-185.18,42.18-383.55,76.77-570.48,21.76-173.73-48.11-298.07-152.29-451.39-214.96-173.05-72.11-349.52-66.94-523.85,1.9C-9.78,145.42-134.75,217.28-261.86,282.07c0,0,0,120.65,0,120.65C-140.74,340.98-2.69,277.42,123.8,227.47c174.33-68.84,350.8-74.01,523.85-1.9,153.32,62.67,277.66,110.14,451.39,158.25,186.94,55.01,385.3,20.42,570.48-21.76,184.13-42.2,371.24-86.71,552.93-128.3v-78.45Z"/>
    </clipPath>
    <clipPath id="clippath-2">
      <path class="cls-2" d="M2076.96,236.27c-181.69,30.55-368.8,63.26-552.93,94.26-185.18,30.99-383.55,56.4-570.48,15.99-173.73-35.35-298.07-111.88-451.39-157.92-173.05-52.98-349.52-49.18-523.85,1.39-133.58,39.01-258.55,91.81-385.66,139.41l131.52,113.88c127.11-47.6,252.08-100.39,385.66-139.41,174.33-50.57,350.8-54.37,523.85-1.39,153.32,46.04,277.66,122.58,451.39,157.92,186.94,40.41,385.3,15,570.48-15.99,184.13-31,371.24-63.71,552.93-94.26l-131.52-113.88Z"/>
    </clipPath>
  </defs>
  <g id="Capa_1-2" data-name="Capa 1">
    <g class="cls-6">
      <g>
        <g class="cls-4">
          <g>
            <g>
              <line class="cls-1" x1="42.3" y1="-749.92" x2="42.3" y2="553.07"/>
              <line class="cls-1" x1="21.97" y1="-749.92" x2="21.97" y2="553.07"/>
              <line class="cls-1" x1="1.64" y1="-749.92" x2="1.64" y2="553.07"/>
              <line class="cls-1" x1="62.63" y1="-749.92" x2="62.63" y2="553.07"/>
              <line class="cls-1" x1="82.96" y1="-749.92" x2="82.96" y2="553.07"/>
              <line class="cls-1" x1="103.3" y1="-749.92" x2="103.3" y2="553.07"/>
              <line class="cls-1" x1="123.63" y1="-749.92" x2="123.63" y2="553.07"/>
              <line class="cls-1" x1="143.96" y1="-749.92" x2="143.96" y2="553.07"/>
              <line class="cls-1" x1="164.29" y1="-749.92" x2="164.29" y2="553.07"/>
              <line class="cls-1" x1="184.62" y1="-749.92" x2="184.62" y2="553.07"/>
              <line class="cls-1" x1="204.96" y1="-749.92" x2="204.96" y2="553.07"/>
              <line class="cls-1" x1="225.29" y1="-749.92" x2="225.29" y2="553.07"/>
              <line class="cls-1" x1="245.62" y1="-749.92" x2="245.62" y2="553.07"/>
              <line class="cls-1" x1="265.95" y1="-749.92" x2="265.95" y2="553.07"/>
              <line class="cls-1" x1="286.28" y1="-749.92" x2="286.28" y2="553.07"/>
              <line class="cls-1" x1="306.62" y1="-749.92" x2="306.62" y2="553.07"/>
              <line class="cls-1" x1="326.95" y1="-749.92" x2="326.95" y2="553.07"/>
              <line class="cls-1" x1="347.28" y1="-749.92" x2="347.28" y2="553.07"/>
              <line class="cls-1" x1="367.61" y1="-749.92" x2="367.61" y2="553.07"/>
              <line class="cls-1" x1="387.94" y1="-749.92" x2="387.94" y2="553.07"/>
              <line class="cls-1" x1="408.28" y1="-749.92" x2="408.28" y2="553.07"/>
              <line class="cls-1" x1="428.61" y1="-749.92" x2="428.61" y2="553.07"/>
              <line class="cls-1" x1="448.94" y1="-749.92" x2="448.94" y2="553.07"/>
              <line class="cls-1" x1="469.27" y1="-749.92" x2="469.27" y2="553.07"/>
              <line class="cls-1" x1="489.6" y1="-749.92" x2="489.6" y2="553.07"/>
              <line class="cls-1" x1="509.94" y1="-749.92" x2="509.94" y2="553.07"/>
              <line class="cls-1" x1="530.27" y1="-749.92" x2="530.27" y2="553.07"/>
              <line class="cls-1" x1="550.6" y1="-749.92" x2="550.6" y2="553.07"/>
              <line class="cls-1" x1="570.93" y1="-749.92" x2="570.93" y2="553.07"/>
              <line class="cls-1" x1="591.26" y1="-749.92" x2="591.26" y2="553.07"/>
              <line class="cls-1" x1="611.6" y1="-749.92" x2="611.6" y2="553.07"/>
              <line class="cls-1" x1="631.93" y1="-749.92" x2="631.93" y2="553.07"/>
              <line class="cls-1" x1="652.26" y1="-749.92" x2="652.26" y2="553.07"/>
              <line class="cls-1" x1="672.59" y1="-749.92" x2="672.59" y2="553.07"/>
              <line class="cls-1" x1="692.92" y1="-749.92" x2="692.92" y2="553.07"/>
              <line class="cls-1" x1="713.26" y1="-749.92" x2="713.26" y2="553.07"/>
              <line class="cls-1" x1="733.59" y1="-749.92" x2="733.59" y2="553.07"/>
              <line class="cls-1" x1="753.92" y1="-749.92" x2="753.92" y2="553.07"/>
              <line class="cls-1" x1="774.25" y1="-749.92" x2="774.25" y2="553.07"/>
              <line class="cls-1" x1="794.58" y1="-749.92" x2="794.58" y2="553.07"/>
              <line class="cls-1" x1="814.92" y1="-749.92" x2="814.92" y2="553.07"/>
              <line class="cls-1" x1="835.25" y1="-749.92" x2="835.25" y2="553.07"/>
              <line class="cls-1" x1="855.58" y1="-749.92" x2="855.58" y2="553.07"/>
              <line class="cls-1" x1="875.91" y1="-749.92" x2="875.91" y2="553.07"/>
              <line class="cls-1" x1="896.24" y1="-749.92" x2="896.24" y2="553.07"/>
              <line class="cls-1" x1="916.58" y1="-749.92" x2="916.58" y2="553.07"/>
              <line class="cls-1" x1="936.91" y1="-749.92" x2="936.91" y2="553.07"/>
              <line class="cls-1" x1="957.24" y1="-749.92" x2="957.24" y2="553.07"/>
              <line class="cls-1" x1="977.57" y1="-749.92" x2="977.57" y2="553.07"/>
              <line class="cls-1" x1="997.9" y1="-749.92" x2="997.9" y2="553.07"/>
              <line class="cls-1" x1="1018.24" y1="-749.92" x2="1018.24" y2="553.07"/>
              <line class="cls-1" x1="1038.57" y1="-749.92" x2="1038.57" y2="553.07"/>
              <line class="cls-1" x1="1058.9" y1="-749.92" x2="1058.9" y2="553.07"/>
              <line class="cls-1" x1="1079.23" y1="-749.92" x2="1079.23" y2="553.07"/>
              <line class="cls-1" x1="1099.56" y1="-749.92" x2="1099.56" y2="553.07"/>
              <line class="cls-1" x1="1119.9" y1="-749.92" x2="1119.9" y2="553.07"/>
              <line class="cls-1" x1="1140.23" y1="-749.92" x2="1140.23" y2="553.07"/>
              <line class="cls-1" x1="1160.56" y1="-749.92" x2="1160.56" y2="553.07"/>
              <line class="cls-1" x1="1180.89" y1="-749.92" x2="1180.89" y2="553.07"/>
              <line class="cls-1" x1="1201.22" y1="-749.92" x2="1201.22" y2="553.07"/>
              <line class="cls-1" x1="1221.56" y1="-749.92" x2="1221.56" y2="553.07"/>
              <line class="cls-1" x1="1241.89" y1="-749.92" x2="1241.89" y2="553.07"/>
              <line class="cls-1" x1="1262.22" y1="-749.92" x2="1262.22" y2="553.07"/>
              <line class="cls-1" x1="1282.55" y1="-749.92" x2="1282.55" y2="553.07"/>
              <line class="cls-1" x1="1302.88" y1="-749.92" x2="1302.88" y2="553.07"/>
              <line class="cls-1" x1="1323.22" y1="-749.92" x2="1323.22" y2="553.07"/>
              <line class="cls-1" x1="1343.55" y1="-749.92" x2="1343.55" y2="553.07"/>
            </g>
            <g>
              <line class="cls-1" x1="1424.66" y1="-749.92" x2="1424.66" y2="553.07"/>
              <line class="cls-1" x1="1404.32" y1="-749.92" x2="1404.32" y2="553.07"/>
              <line class="cls-1" x1="1383.99" y1="-749.92" x2="1383.99" y2="553.07"/>
              <line class="cls-1" x1="1363.66" y1="-749.92" x2="1363.66" y2="553.07"/>
              <line class="cls-1" x1="1444.99" y1="-749.92" x2="1444.99" y2="553.07"/>
              <line class="cls-1" x1="1465.32" y1="-749.92" x2="1465.32" y2="553.07"/>
              <line class="cls-1" x1="1485.65" y1="-749.92" x2="1485.65" y2="553.07"/>
              <line class="cls-1" x1="1505.98" y1="-749.92" x2="1505.98" y2="553.07"/>
              <line class="cls-1" x1="1526.32" y1="-749.92" x2="1526.32" y2="553.07"/>
              <line class="cls-1" x1="1546.65" y1="-749.92" x2="1546.65" y2="553.07"/>
              <line class="cls-1" x1="1566.98" y1="-749.92" x2="1566.98" y2="553.07"/>
              <line class="cls-1" x1="1587.31" y1="-749.92" x2="1587.31" y2="553.07"/>
              <line class="cls-1" x1="1607.64" y1="-749.92" x2="1607.64" y2="553.07"/>
              <line class="cls-1" x1="1627.98" y1="-749.92" x2="1627.98" y2="553.07"/>
              <line class="cls-1" x1="1648.31" y1="-749.92" x2="1648.31" y2="553.07"/>
              <line class="cls-1" x1="1668.64" y1="-749.92" x2="1668.64" y2="553.07"/>
              <line class="cls-1" x1="1688.97" y1="-749.92" x2="1688.97" y2="553.07"/>
              <line class="cls-1" x1="1709.3" y1="-749.92" x2="1709.3" y2="553.07"/>
              <line class="cls-1" x1="1729.64" y1="-749.92" x2="1729.64" y2="553.07"/>
              <line class="cls-1" x1="1749.97" y1="-749.92" x2="1749.97" y2="553.07"/>
              <line class="cls-1" x1="1770.3" y1="-749.92" x2="1770.3" y2="553.07"/>
              <line class="cls-1" x1="1790.63" y1="-749.92" x2="1790.63" y2="553.07"/>
              <line class="cls-1" x1="1810.96" y1="-749.92" x2="1810.96" y2="553.07"/>
              <line class="cls-1" x1="1831.3" y1="-749.92" x2="1831.3" y2="553.07"/>
              <line class="cls-1" x1="1851.63" y1="-749.92" x2="1851.63" y2="553.07"/>
              <line class="cls-1" x1="1871.96" y1="-749.92" x2="1871.96" y2="553.07"/>
              <line class="cls-1" x1="1892.29" y1="-749.92" x2="1892.29" y2="553.07"/>
              <line class="cls-1" x1="1912.62" y1="-749.92" x2="1912.62" y2="553.07"/>
            </g>
          </g>
        </g>
        <g class="cls-5">
          <g>
            <g>
              <line class="cls-3" x1="52.61" y1="-401.98" x2="52.61" y2="630.87"/>
              <line class="cls-3" x1="32.28" y1="-401.98" x2="32.28" y2="630.87"/>
              <line class="cls-3" x1="11.95" y1="-401.98" x2="11.95" y2="630.87"/>
              <line class="cls-3" x1="72.94" y1="-401.98" x2="72.94" y2="630.87"/>
              <line class="cls-3" x1="93.27" y1="-401.98" x2="93.27" y2="630.87"/>
              <line class="cls-3" x1="113.61" y1="-401.98" x2="113.61" y2="630.87"/>
              <line class="cls-3" x1="133.94" y1="-401.98" x2="133.94" y2="630.87"/>
              <line class="cls-3" x1="154.27" y1="-401.98" x2="154.27" y2="630.87"/>
              <line class="cls-3" x1="174.6" y1="-401.98" x2="174.6" y2="630.87"/>
              <line class="cls-3" x1="194.93" y1="-401.98" x2="194.93" y2="630.87"/>
              <line class="cls-3" x1="215.27" y1="-401.98" x2="215.27" y2="630.87"/>
              <line class="cls-3" x1="235.6" y1="-401.98" x2="235.6" y2="630.87"/>
              <line class="cls-3" x1="255.93" y1="-401.98" x2="255.93" y2="630.87"/>
              <line class="cls-3" x1="276.26" y1="-401.98" x2="276.26" y2="630.87"/>
              <line class="cls-3" x1="296.59" y1="-401.98" x2="296.59" y2="630.87"/>
              <line class="cls-3" x1="316.93" y1="-401.98" x2="316.93" y2="630.87"/>
              <line class="cls-3" x1="337.26" y1="-401.98" x2="337.26" y2="630.87"/>
              <line class="cls-3" x1="357.59" y1="-401.98" x2="357.59" y2="630.87"/>
              <line class="cls-3" x1="377.92" y1="-401.98" x2="377.92" y2="630.87"/>
              <line class="cls-3" x1="398.25" y1="-401.98" x2="398.25" y2="630.87"/>
              <line class="cls-3" x1="418.59" y1="-401.98" x2="418.59" y2="630.87"/>
              <line class="cls-3" x1="438.92" y1="-401.98" x2="438.92" y2="630.87"/>
              <line class="cls-3" x1="459.25" y1="-401.98" x2="459.25" y2="630.87"/>
              <line class="cls-3" x1="479.58" y1="-401.98" x2="479.58" y2="630.87"/>
              <line class="cls-3" x1="499.91" y1="-401.98" x2="499.91" y2="630.87"/>
              <line class="cls-3" x1="520.25" y1="-401.98" x2="520.25" y2="630.87"/>
              <line class="cls-3" x1="540.58" y1="-401.98" x2="540.58" y2="630.87"/>
              <line class="cls-3" x1="560.91" y1="-401.98" x2="560.91" y2="630.87"/>
              <line class="cls-3" x1="581.24" y1="-401.98" x2="581.24" y2="630.87"/>
              <line class="cls-3" x1="601.57" y1="-401.98" x2="601.57" y2="630.87"/>
              <line class="cls-3" x1="621.91" y1="-401.98" x2="621.91" y2="630.87"/>
              <line class="cls-3" x1="642.24" y1="-401.98" x2="642.24" y2="630.87"/>
              <line class="cls-3" x1="662.57" y1="-401.98" x2="662.57" y2="630.87"/>
              <line class="cls-3" x1="682.9" y1="-401.98" x2="682.9" y2="630.87"/>
              <line class="cls-3" x1="703.23" y1="-401.98" x2="703.23" y2="630.87"/>
              <line class="cls-3" x1="723.57" y1="-401.98" x2="723.57" y2="630.87"/>
              <line class="cls-3" x1="743.9" y1="-401.98" x2="743.9" y2="630.87"/>
              <line class="cls-3" x1="764.23" y1="-401.98" x2="764.23" y2="630.87"/>
              <line class="cls-3" x1="784.56" y1="-401.98" x2="784.56" y2="630.87"/>
              <line class="cls-3" x1="804.89" y1="-401.98" x2="804.89" y2="630.87"/>
              <line class="cls-3" x1="825.23" y1="-401.98" x2="825.23" y2="630.87"/>
              <line class="cls-3" x1="845.56" y1="-401.98" x2="845.56" y2="630.87"/>
              <line class="cls-3" x1="865.89" y1="-401.98" x2="865.89" y2="630.87"/>
              <line class="cls-3" x1="886.22" y1="-401.98" x2="886.22" y2="630.87"/>
              <line class="cls-3" x1="906.55" y1="-401.98" x2="906.55" y2="630.87"/>
              <line class="cls-3" x1="926.89" y1="-401.98" x2="926.89" y2="630.87"/>
              <line class="cls-3" x1="947.22" y1="-401.98" x2="947.22" y2="630.87"/>
              <line class="cls-3" x1="967.55" y1="-401.98" x2="967.55" y2="630.87"/>
              <line class="cls-3" x1="987.88" y1="-401.98" x2="987.88" y2="630.87"/>
              <line class="cls-3" x1="1008.21" y1="-401.98" x2="1008.21" y2="630.87"/>
              <line class="cls-3" x1="1028.55" y1="-401.98" x2="1028.55" y2="630.87"/>
              <line class="cls-3" x1="1048.88" y1="-401.98" x2="1048.88" y2="630.87"/>
              <line class="cls-3" x1="1069.21" y1="-401.98" x2="1069.21" y2="630.87"/>
              <line class="cls-3" x1="1089.54" y1="-401.98" x2="1089.54" y2="630.87"/>
              <line class="cls-3" x1="1109.87" y1="-401.98" x2="1109.87" y2="630.87"/>
              <line class="cls-3" x1="1130.21" y1="-401.98" x2="1130.21" y2="630.87"/>
              <line class="cls-3" x1="1150.54" y1="-401.98" x2="1150.54" y2="630.87"/>
              <line class="cls-3" x1="1170.87" y1="-401.98" x2="1170.87" y2="630.87"/>
              <line class="cls-3" x1="1191.2" y1="-401.98" x2="1191.2" y2="630.87"/>
              <line class="cls-3" x1="1211.53" y1="-401.98" x2="1211.53" y2="630.87"/>
              <line class="cls-3" x1="1231.87" y1="-401.98" x2="1231.87" y2="630.87"/>
              <line class="cls-3" x1="1252.2" y1="-401.98" x2="1252.2" y2="630.87"/>
              <line class="cls-3" x1="1272.53" y1="-401.98" x2="1272.53" y2="630.87"/>
              <line class="cls-3" x1="1292.86" y1="-401.98" x2="1292.86" y2="630.87"/>
              <line class="cls-3" x1="1313.19" y1="-401.98" x2="1313.19" y2="630.87"/>
              <line class="cls-3" x1="1333.53" y1="-401.98" x2="1333.53" y2="630.87"/>
              <line class="cls-3" x1="1353.86" y1="-401.98" x2="1353.86" y2="630.87"/>
            </g>
            <g>
              <line class="cls-3" x1="1434.32" y1="-401.98" x2="1434.32" y2="630.87"/>
              <line class="cls-3" x1="1413.99" y1="-401.98" x2="1413.99" y2="630.87"/>
              <line class="cls-3" x1="1393.66" y1="-401.98" x2="1393.66" y2="630.87"/>
              <line class="cls-3" x1="1373.33" y1="-401.98" x2="1373.33" y2="630.87"/>
              <line class="cls-3" x1="1454.65" y1="-401.98" x2="1454.65" y2="630.87"/>
              <line class="cls-3" x1="1474.99" y1="-401.98" x2="1474.99" y2="630.87"/>
              <line class="cls-3" x1="1495.32" y1="-401.98" x2="1495.32" y2="630.87"/>
              <line class="cls-3" x1="1515.65" y1="-401.98" x2="1515.65" y2="630.87"/>
              <line class="cls-3" x1="1535.98" y1="-401.98" x2="1535.98" y2="630.87"/>
              <line class="cls-3" x1="1556.31" y1="-401.98" x2="1556.31" y2="630.87"/>
              <line class="cls-3" x1="1576.65" y1="-401.98" x2="1576.65" y2="630.87"/>
              <line class="cls-3" x1="1596.98" y1="-401.98" x2="1596.98" y2="630.87"/>
              <line class="cls-3" x1="1617.31" y1="-401.98" x2="1617.31" y2="630.87"/>
              <line class="cls-3" x1="1637.64" y1="-401.98" x2="1637.64" y2="630.87"/>
              <line class="cls-3" x1="1657.97" y1="-401.98" x2="1657.97" y2="630.87"/>
              <line class="cls-3" x1="1678.31" y1="-401.98" x2="1678.31" y2="630.87"/>
              <line class="cls-3" x1="1698.64" y1="-401.98" x2="1698.64" y2="630.87"/>
              <line class="cls-3" x1="1718.97" y1="-401.98" x2="1718.97" y2="630.87"/>
              <line class="cls-3" x1="1739.3" y1="-401.98" x2="1739.3" y2="630.87"/>
              <line class="cls-3" x1="1759.63" y1="-401.98" x2="1759.63" y2="630.87"/>
              <line class="cls-3" x1="1779.97" y1="-401.98" x2="1779.97" y2="630.87"/>
              <line class="cls-3" x1="1800.3" y1="-401.98" x2="1800.3" y2="630.87"/>
              <line class="cls-3" x1="1820.63" y1="-401.98" x2="1820.63" y2="630.87"/>
              <line class="cls-3" x1="1840.96" y1="-401.98" x2="1840.96" y2="630.87"/>
              <line class="cls-3" x1="1861.29" y1="-401.98" x2="1861.29" y2="630.87"/>
              <line class="cls-3" x1="1881.63" y1="-401.98" x2="1881.63" y2="630.87"/>
              <line class="cls-3" x1="1901.96" y1="-401.98" x2="1901.96" y2="630.87"/>
            </g>
          </g>
        </g>
      </g>
    </g>
  </g>
</svg>
