<?xml version="1.0" encoding="UTF-8"?>
<svg id="Capa_2" data-name="Capa 2" xmlns="http://www.w3.org/2000/svg" xmlns:xlink="http://www.w3.org/1999/xlink" viewBox="0 0 1920 511.42">
  <defs>
    <style>
      .cls-1 {
        stroke: #045654;
        stroke-width: 1.42px;
      }

      .cls-1, .cls-2, .cls-3 {
        fill: none;
      }

      .cls-1, .cls-3 {
        stroke-miterlimit: 10;
      }

      .cls-4 {
        clip-path: url(#clippath-1);
      }

      .cls-3 {
        stroke: #07302f;
        stroke-width: 4.25px;
      }

      .cls-5 {
        clip-path: url(#clippath-2);
      }

      .cls-6 {
        clip-path: url(#clippath);
      }
    </style>
    <clipPath id="clippath">
      <rect class="cls-2" width="1920" height="511.42"/>
    </clipPath>
    <clipPath id="clippath-1">
      <path class="cls-2" d="M2906.29,305.29c-126.21,29.15-261.4,53.05-388.8,15.04-118.4-33.25-203.14-79.47-307.63-122.78-117.94-49.83-238.21-46.26-357.02,1.31-46.74,18.84-92.05,41.16-136.8,64.48-22.56,11.76-45,23.78-67.45,35.76-31.24,16.67-60.26,33.23-94.62,41.79-35.21,8.77-71.6,13.35-107.85,12.53-36.72-.83-78.01-6.26-111.23-23.43-86.63-44.77-171.8-94.43-262.84-131.13-118.81-47.57-239.08-51.14-357.02-1.31-104.49,43.31-189.23,89.53-307.63,122.78-127.4,38.02-262.59,14.11-388.8-15.04-125.49-29.16-253.01-93.25-376.84-121.99v109.34c123.83,28.74,251.35,59.5,376.84,88.66,126.21,29.15,261.4,53.05,388.8,15.04,118.4-33.25,203.14-69.49,307.63-112.8,117.94-49.83,238.21-46.26,357.02,1.31,69.66,28.08,135.89,51.55,201.96,86.81,51.7,27.59,108.54,43.7,166.73,46.7,1.64.08,3.3.16,4.96.24,71.22,3.1,141.97-13.21,205.21-46.96,66.06-35.26,132.28-58.72,201.93-86.79,118.81-47.57,239.08-51.14,357.02-1.31,104.49,43.31,189.23,79.55,307.63,112.8,127.4,38.01,262.59,14.11,388.8-15.04,125.49-29.16,253.01-59.92,376.84-88.66v-109.34c-123.83,28.74-251.35,92.82-376.84,121.99Z"/>
    </clipPath>
    <clipPath id="clippath-2">
      <path class="cls-2" d="M5159.03,263.18c-201.27,46.48-416.87,84.61-620.05,23.98-188.82-53.02-323.97-126.73-490.61-195.8-188.08-79.47-379.89-73.78-569.36,2.09-74.54,30.05-146.81,65.64-218.17,102.83-35.99,18.75-71.76,37.93-107.57,57.03-49.83,26.58-96.1,53-150.89,66.65-56.15,13.98-114.19,21.29-172,19.99-58.56-1.32-124.41-9.99-177.39-37.37-138.16-71.4-273.98-150.6-419.16-209.12-189.48-75.86-381.28-81.56-569.36-2.09-166.64,69.07-301.78,142.78-490.61,195.8-203.18,60.63-418.78,22.5-620.05-23.98C353.68,216.67,150.31,114.47-47.16,68.64v174.37c197.47,45.83,400.84,94.89,600.97,141.4,201.27,46.48,416.87,84.61,620.05,23.98,188.82-53.02,323.97-110.83,490.61-179.9,188.08-79.47,379.89-73.78,569.36,2.09,111.09,44.78,216.71,82.21,322.09,138.45,82.44,44,173.09,69.69,265.9,74.48,2.62.14,5.26.26,7.91.38,113.57,4.94,226.41-21.07,327.26-74.89,105.36-56.23,210.95-93.65,322.03-138.42,189.48-75.86,381.28-81.56,569.36-2.09,166.64,69.07,301.78,126.87,490.61,179.9,203.18,60.62,418.78,22.5,620.05-23.98,200.13-46.51,403.5-95.57,600.97-141.4V68.64c-197.47,45.83-400.84,148.03-600.97,194.54Z"/>
    </clipPath>
  </defs>
  <g id="Capa_1-2" data-name="Capa 1">
    <g class="cls-6">
      <g>
        <g class="cls-4">
          <g>
            <line class="cls-1" x1="1916.42" y1="-574.12" x2="1916.42" y2="728.87"/>
            <line class="cls-1" x1="1897.57" y1="-574.12" x2="1897.57" y2="728.87"/>
            <line class="cls-1" x1="1878.73" y1="-574.12" x2="1878.73" y2="728.87"/>
            <line class="cls-1" x1="1859.89" y1="-574.12" x2="1859.89" y2="728.87"/>
            <line class="cls-1" x1="1841.05" y1="-574.12" x2="1841.05" y2="728.87"/>
            <line class="cls-1" x1="1822.2" y1="-574.12" x2="1822.2" y2="728.87"/>
            <line class="cls-1" x1="1803.36" y1="-574.12" x2="1803.36" y2="728.87"/>
            <line class="cls-1" x1="1784.52" y1="-574.12" x2="1784.52" y2="728.87"/>
            <line class="cls-1" x1="1765.68" y1="-574.12" x2="1765.68" y2="728.87"/>
            <line class="cls-1" x1="1746.83" y1="-574.12" x2="1746.83" y2="728.87"/>
            <line class="cls-1" x1="1727.99" y1="-574.12" x2="1727.99" y2="728.87"/>
            <line class="cls-1" x1="1709.15" y1="-574.12" x2="1709.15" y2="728.87"/>
            <line class="cls-1" x1="1690.3" y1="-574.12" x2="1690.3" y2="728.87"/>
            <line class="cls-1" x1="1671.46" y1="-574.12" x2="1671.46" y2="728.87"/>
            <line class="cls-1" x1="1652.62" y1="-574.12" x2="1652.62" y2="728.87"/>
            <line class="cls-1" x1="1633.78" y1="-574.12" x2="1633.78" y2="728.87"/>
            <line class="cls-1" x1="1614.93" y1="-574.12" x2="1614.93" y2="728.87"/>
            <line class="cls-1" x1="1596.09" y1="-574.12" x2="1596.09" y2="728.87"/>
            <line class="cls-1" x1="1577.25" y1="-574.12" x2="1577.25" y2="728.87"/>
            <line class="cls-1" x1="1558.41" y1="-574.12" x2="1558.41" y2="728.87"/>
            <line class="cls-1" x1="1539.56" y1="-574.12" x2="1539.56" y2="728.87"/>
            <line class="cls-1" x1="1520.72" y1="-574.12" x2="1520.72" y2="728.87"/>
            <line class="cls-1" x1="1501.88" y1="-574.12" x2="1501.88" y2="728.87"/>
            <line class="cls-1" x1="1483.03" y1="-574.12" x2="1483.03" y2="728.87"/>
            <line class="cls-1" x1="1464.19" y1="-574.12" x2="1464.19" y2="728.87"/>
            <line class="cls-1" x1="1445.35" y1="-574.12" x2="1445.35" y2="728.87"/>
            <line class="cls-1" x1="1426.51" y1="-574.12" x2="1426.51" y2="728.87"/>
            <line class="cls-1" x1="1407.66" y1="-574.12" x2="1407.66" y2="728.87"/>
            <line class="cls-1" x1="1388.82" y1="-574.12" x2="1388.82" y2="728.87"/>
            <line class="cls-1" x1="1369.98" y1="-574.12" x2="1369.98" y2="728.87"/>
            <line class="cls-1" x1="1351.14" y1="-574.12" x2="1351.14" y2="728.87"/>
            <line class="cls-1" x1="1332.29" y1="-574.12" x2="1332.29" y2="728.87"/>
            <line class="cls-1" x1="1313.45" y1="-574.12" x2="1313.45" y2="728.87"/>
            <line class="cls-1" x1="1294.61" y1="-574.12" x2="1294.61" y2="728.87"/>
            <line class="cls-1" x1="1275.77" y1="-574.12" x2="1275.77" y2="728.87"/>
            <line class="cls-1" x1="1256.92" y1="-574.12" x2="1256.92" y2="728.87"/>
            <line class="cls-1" x1="1238.08" y1="-574.12" x2="1238.08" y2="728.87"/>
            <line class="cls-1" x1="1162.71" y1="-574.12" x2="1162.71" y2="728.87"/>
            <line class="cls-1" x1="1181.55" y1="-574.12" x2="1181.55" y2="728.87"/>
            <line class="cls-1" x1="1200.39" y1="-574.12" x2="1200.39" y2="728.87"/>
            <line class="cls-1" x1="1219.24" y1="-574.12" x2="1219.24" y2="728.87"/>
            <line class="cls-1" x1="1143.87" y1="-574.12" x2="1143.87" y2="728.87"/>
            <line class="cls-1" x1="1125.02" y1="-574.12" x2="1125.02" y2="728.87"/>
            <line class="cls-1" x1="1106.18" y1="-574.12" x2="1106.18" y2="728.87"/>
            <line class="cls-1" x1="1087.34" y1="-574.12" x2="1087.34" y2="728.87"/>
            <line class="cls-1" x1="1068.5" y1="-574.12" x2="1068.5" y2="728.87"/>
            <line class="cls-1" x1="1049.65" y1="-574.12" x2="1049.65" y2="728.87"/>
            <line class="cls-1" x1="1030.81" y1="-574.12" x2="1030.81" y2="728.87"/>
            <line class="cls-1" x1="1011.97" y1="-574.12" x2="1011.97" y2="728.87"/>
            <line class="cls-1" x1="993.13" y1="-574.12" x2="993.13" y2="728.87"/>
            <line class="cls-1" x1="974.28" y1="-574.12" x2="974.28" y2="728.87"/>
            <line class="cls-1" x1="955.44" y1="-574.12" x2="955.44" y2="728.87"/>
            <line class="cls-1" x1="936.6" y1="-574.12" x2="936.6" y2="728.87"/>
            <line class="cls-1" x1="917.75" y1="-574.12" x2="917.75" y2="728.87"/>
            <line class="cls-1" x1="898.91" y1="-574.12" x2="898.91" y2="728.87"/>
            <line class="cls-1" x1="880.07" y1="-574.12" x2="880.07" y2="728.87"/>
            <line class="cls-1" x1="861.23" y1="-574.12" x2="861.23" y2="728.87"/>
            <line class="cls-1" x1="842.38" y1="-574.12" x2="842.38" y2="728.87"/>
            <line class="cls-1" x1="823.54" y1="-574.12" x2="823.54" y2="728.87"/>
            <line class="cls-1" x1="804.7" y1="-574.12" x2="804.7" y2="728.87"/>
            <line class="cls-1" x1="785.86" y1="-574.12" x2="785.86" y2="728.87"/>
            <line class="cls-1" x1="767.01" y1="-574.12" x2="767.01" y2="728.87"/>
            <line class="cls-1" x1="748.17" y1="-574.12" x2="748.17" y2="728.87"/>
            <line class="cls-1" x1="729.33" y1="-574.12" x2="729.33" y2="728.87"/>
            <line class="cls-1" x1="710.48" y1="-574.12" x2="710.48" y2="728.87"/>
            <line class="cls-1" x1="691.64" y1="-574.12" x2="691.64" y2="728.87"/>
            <line class="cls-1" x1="672.8" y1="-574.12" x2="672.8" y2="728.87"/>
            <line class="cls-1" x1="653.96" y1="-574.12" x2="653.96" y2="728.87"/>
            <line class="cls-1" x1="635.11" y1="-574.12" x2="635.11" y2="728.87"/>
            <line class="cls-1" x1="616.27" y1="-574.12" x2="616.27" y2="728.87"/>
            <line class="cls-1" x1="597.43" y1="-574.12" x2="597.43" y2="728.87"/>
            <line class="cls-1" x1="578.59" y1="-574.12" x2="578.59" y2="728.87"/>
            <line class="cls-1" x1="559.74" y1="-574.12" x2="559.74" y2="728.87"/>
            <line class="cls-1" x1="540.9" y1="-574.12" x2="540.9" y2="728.87"/>
            <line class="cls-1" x1="522.06" y1="-574.12" x2="522.06" y2="728.87"/>
            <line class="cls-1" x1="503.22" y1="-574.12" x2="503.22" y2="728.87"/>
            <line class="cls-1" x1="484.37" y1="-574.12" x2="484.37" y2="728.87"/>
            <line class="cls-1" x1="465.53" y1="-574.12" x2="465.53" y2="728.87"/>
            <line class="cls-1" x1="446.69" y1="-574.12" x2="446.69" y2="728.87"/>
            <line class="cls-1" x1="427.84" y1="-574.12" x2="427.84" y2="728.87"/>
            <line class="cls-1" x1="409" y1="-574.12" x2="409" y2="728.87"/>
            <line class="cls-1" x1="390.16" y1="-574.12" x2="390.16" y2="728.87"/>
            <line class="cls-1" x1="371.32" y1="-574.12" x2="371.32" y2="728.87"/>
            <line class="cls-1" x1="352.47" y1="-574.12" x2="352.47" y2="728.87"/>
            <line class="cls-1" x1="333.63" y1="-574.12" x2="333.63" y2="728.87"/>
            <line class="cls-1" x1="314.79" y1="-574.12" x2="314.79" y2="728.87"/>
            <line class="cls-1" x1="295.95" y1="-574.12" x2="295.95" y2="728.87"/>
            <line class="cls-1" x1="277.1" y1="-574.12" x2="277.1" y2="728.87"/>
            <line class="cls-1" x1="258.26" y1="-574.12" x2="258.26" y2="728.87"/>
            <line class="cls-1" x1="239.42" y1="-574.12" x2="239.42" y2="728.87"/>
            <line class="cls-1" x1="220.57" y1="-574.12" x2="220.58" y2="728.87"/>
            <line class="cls-1" x1="201.73" y1="-574.12" x2="201.73" y2="728.87"/>
            <line class="cls-1" x1="182.89" y1="-574.12" x2="182.89" y2="728.87"/>
            <line class="cls-1" x1="164.05" y1="-574.12" x2="164.05" y2="728.87"/>
            <line class="cls-1" x1="145.2" y1="-574.12" x2="145.2" y2="728.87"/>
            <line class="cls-1" x1="126.36" y1="-574.12" x2="126.36" y2="728.87"/>
            <line class="cls-1" x1="107.52" y1="-574.12" x2="107.52" y2="728.87"/>
            <line class="cls-1" x1="88.68" y1="-574.12" x2="88.68" y2="728.87"/>
            <line class="cls-1" x1="69.83" y1="-574.12" x2="69.83" y2="728.87"/>
            <line class="cls-1" x1="50.99" y1="-574.12" x2="50.99" y2="728.87"/>
            <line class="cls-1" x1="32.15" y1="-574.12" x2="32.15" y2="728.87"/>
            <line class="cls-1" x1="13.31" y1="-574.12" x2="13.31" y2="728.87"/>
          </g>
        </g>
        <g class="cls-5">
          <g>
            <line class="cls-3" x1="1906.7" y1="-279.02" x2="1906.7" y2="1023.96"/>
            <line class="cls-3" x1="1887.86" y1="-279.02" x2="1887.86" y2="1023.96"/>
            <line class="cls-3" x1="1869.01" y1="-279.02" x2="1869.01" y2="1023.96"/>
            <line class="cls-3" x1="1850.17" y1="-279.02" x2="1850.17" y2="1023.96"/>
            <line class="cls-3" x1="1831.33" y1="-279.02" x2="1831.33" y2="1023.96"/>
            <line class="cls-3" x1="1812.49" y1="-279.02" x2="1812.49" y2="1023.96"/>
            <line class="cls-3" x1="1793.64" y1="-279.02" x2="1793.64" y2="1023.96"/>
            <line class="cls-3" x1="1774.8" y1="-279.02" x2="1774.8" y2="1023.96"/>
            <line class="cls-3" x1="1755.96" y1="-279.02" x2="1755.96" y2="1023.96"/>
            <line class="cls-3" x1="1737.12" y1="-279.02" x2="1737.12" y2="1023.96"/>
            <line class="cls-3" x1="1718.27" y1="-279.02" x2="1718.27" y2="1023.96"/>
            <line class="cls-3" x1="1699.43" y1="-279.02" x2="1699.43" y2="1023.96"/>
            <line class="cls-3" x1="1680.59" y1="-279.02" x2="1680.59" y2="1023.96"/>
            <line class="cls-3" x1="1661.74" y1="-279.02" x2="1661.74" y2="1023.96"/>
            <line class="cls-3" x1="1642.9" y1="-279.02" x2="1642.9" y2="1023.96"/>
            <line class="cls-3" x1="1624.06" y1="-279.02" x2="1624.06" y2="1023.96"/>
            <line class="cls-3" x1="1605.22" y1="-279.02" x2="1605.22" y2="1023.96"/>
            <line class="cls-3" x1="1586.37" y1="-279.02" x2="1586.37" y2="1023.96"/>
            <line class="cls-3" x1="1567.53" y1="-279.02" x2="1567.53" y2="1023.96"/>
            <line class="cls-3" x1="1548.69" y1="-279.02" x2="1548.69" y2="1023.96"/>
            <line class="cls-3" x1="1529.85" y1="-279.02" x2="1529.85" y2="1023.96"/>
            <line class="cls-3" x1="1511" y1="-279.02" x2="1511" y2="1023.96"/>
            <line class="cls-3" x1="1492.16" y1="-279.02" x2="1492.16" y2="1023.96"/>
            <line class="cls-3" x1="1473.32" y1="-279.02" x2="1473.32" y2="1023.96"/>
            <line class="cls-3" x1="1454.48" y1="-279.02" x2="1454.48" y2="1023.96"/>
            <line class="cls-3" x1="1435.63" y1="-279.02" x2="1435.63" y2="1023.96"/>
            <line class="cls-3" x1="1416.79" y1="-279.02" x2="1416.79" y2="1023.96"/>
            <line class="cls-3" x1="1397.95" y1="-279.02" x2="1397.95" y2="1023.96"/>
            <line class="cls-3" x1="1379.1" y1="-279.02" x2="1379.1" y2="1023.96"/>
            <line class="cls-3" x1="1360.26" y1="-279.02" x2="1360.26" y2="1023.96"/>
            <line class="cls-3" x1="1341.42" y1="-279.02" x2="1341.42" y2="1023.96"/>
            <line class="cls-3" x1="1322.58" y1="-279.02" x2="1322.58" y2="1023.96"/>
            <line class="cls-3" x1="1303.73" y1="-279.02" x2="1303.73" y2="1023.96"/>
            <line class="cls-3" x1="1284.89" y1="-279.02" x2="1284.89" y2="1023.96"/>
            <line class="cls-3" x1="1266.05" y1="-279.02" x2="1266.05" y2="1023.96"/>
            <line class="cls-3" x1="1247.21" y1="-279.02" x2="1247.21" y2="1023.96"/>
            <line class="cls-3" x1="1228.36" y1="-279.02" x2="1228.36" y2="1023.96"/>
            <line class="cls-3" x1="1152.99" y1="-279.02" x2="1152.99" y2="1023.96"/>
            <line class="cls-3" x1="1171.83" y1="-279.02" x2="1171.84" y2="1023.96"/>
            <line class="cls-3" x1="1190.68" y1="-279.02" x2="1190.68" y2="1023.96"/>
            <line class="cls-3" x1="1209.52" y1="-279.02" x2="1209.52" y2="1023.96"/>
            <line class="cls-3" x1="1134.15" y1="-279.02" x2="1134.15" y2="1023.96"/>
            <line class="cls-3" x1="1115.31" y1="-279.02" x2="1115.31" y2="1023.96"/>
            <line class="cls-3" x1="1096.46" y1="-279.02" x2="1096.46" y2="1023.96"/>
            <line class="cls-3" x1="1077.62" y1="-279.02" x2="1077.62" y2="1023.96"/>
            <line class="cls-3" x1="1058.78" y1="-279.02" x2="1058.78" y2="1023.96"/>
            <line class="cls-3" x1="1039.94" y1="-279.02" x2="1039.94" y2="1023.96"/>
            <line class="cls-3" x1="1021.09" y1="-279.02" x2="1021.09" y2="1023.96"/>
            <line class="cls-3" x1="1002.25" y1="-279.02" x2="1002.25" y2="1023.96"/>
            <line class="cls-3" x1="983.41" y1="-279.02" x2="983.41" y2="1023.96"/>
            <line class="cls-3" x1="964.57" y1="-279.02" x2="964.57" y2="1023.96"/>
            <path class="cls-3" d="M945.72-279.02c0,194.24,0,388.48,0,582.73,0,228.66,0,457.32,0,685.98,0,11.43,0,22.85,0,34.28"/>
            <line class="cls-3" x1="926.88" y1="-279.02" x2="926.88" y2="1023.96"/>
            <line class="cls-3" x1="908.04" y1="-279.02" x2="908.04" y2="1023.96"/>
            <line class="cls-3" x1="889.19" y1="-279.02" x2="889.19" y2="1023.96"/>
            <line class="cls-3" x1="870.35" y1="-279.02" x2="870.35" y2="1023.96"/>
            <line class="cls-3" x1="851.51" y1="-279.02" x2="851.51" y2="1023.96"/>
            <line class="cls-3" x1="832.67" y1="-279.02" x2="832.67" y2="1023.96"/>
            <line class="cls-3" x1="813.82" y1="-279.02" x2="813.82" y2="1023.96"/>
            <line class="cls-3" x1="794.98" y1="-279.02" x2="794.98" y2="1023.96"/>
            <line class="cls-3" x1="776.14" y1="-279.02" x2="776.14" y2="1023.96"/>
            <line class="cls-3" x1="757.3" y1="-279.02" x2="757.3" y2="1023.96"/>
            <line class="cls-3" x1="738.45" y1="-279.02" x2="738.45" y2="1023.96"/>
            <line class="cls-3" x1="719.61" y1="-279.02" x2="719.61" y2="1023.96"/>
            <line class="cls-3" x1="700.77" y1="-279.02" x2="700.77" y2="1023.96"/>
            <line class="cls-3" x1="681.93" y1="-279.02" x2="681.93" y2="1023.96"/>
            <line class="cls-3" x1="663.08" y1="-279.02" x2="663.08" y2="1023.96"/>
            <line class="cls-3" x1="644.24" y1="-279.02" x2="644.24" y2="1023.96"/>
            <line class="cls-3" x1="625.4" y1="-279.02" x2="625.4" y2="1023.96"/>
            <line class="cls-3" x1="606.55" y1="-279.02" x2="606.55" y2="1023.96"/>
            <line class="cls-3" x1="587.71" y1="-279.02" x2="587.71" y2="1023.96"/>
            <line class="cls-3" x1="568.87" y1="-279.02" x2="568.87" y2="1023.96"/>
            <line class="cls-3" x1="550.03" y1="-279.02" x2="550.03" y2="1023.96"/>
            <line class="cls-3" x1="531.18" y1="-279.02" x2="531.18" y2="1023.96"/>
            <line class="cls-3" x1="512.34" y1="-279.02" x2="512.34" y2="1023.96"/>
            <line class="cls-3" x1="493.5" y1="-279.02" x2="493.5" y2="1023.96"/>
            <line class="cls-3" x1="474.66" y1="-279.02" x2="474.66" y2="1023.96"/>
            <line class="cls-3" x1="455.81" y1="-279.02" x2="455.81" y2="1023.96"/>
            <line class="cls-3" x1="436.97" y1="-279.02" x2="436.97" y2="1023.96"/>
            <line class="cls-3" x1="418.13" y1="-279.02" x2="418.13" y2="1023.96"/>
            <line class="cls-3" x1="399.28" y1="-279.02" x2="399.28" y2="1023.96"/>
            <line class="cls-3" x1="380.44" y1="-279.02" x2="380.44" y2="1023.96"/>
            <line class="cls-3" x1="361.6" y1="-279.02" x2="361.6" y2="1023.96"/>
            <line class="cls-3" x1="342.76" y1="-279.02" x2="342.76" y2="1023.96"/>
            <line class="cls-3" x1="323.91" y1="-279.02" x2="323.91" y2="1023.96"/>
            <line class="cls-3" x1="305.07" y1="-279.02" x2="305.07" y2="1023.96"/>
            <line class="cls-3" x1="286.23" y1="-279.02" x2="286.23" y2="1023.96"/>
            <line class="cls-3" x1="267.39" y1="-279.02" x2="267.39" y2="1023.96"/>
            <line class="cls-3" x1="248.54" y1="-279.02" x2="248.54" y2="1023.96"/>
            <line class="cls-3" x1="229.7" y1="-279.02" x2="229.7" y2="1023.96"/>
            <line class="cls-3" x1="210.86" y1="-279.02" x2="210.86" y2="1023.96"/>
            <line class="cls-3" x1="192.02" y1="-279.02" x2="192.02" y2="1023.96"/>
            <line class="cls-3" x1="173.17" y1="-279.02" x2="173.17" y2="1023.96"/>
            <line class="cls-3" x1="154.33" y1="-279.02" x2="154.33" y2="1023.96"/>
            <line class="cls-3" x1="135.49" y1="-279.02" x2="135.49" y2="1023.96"/>
            <line class="cls-3" x1="116.64" y1="-279.02" x2="116.64" y2="1023.96"/>
            <line class="cls-3" x1="97.8" y1="-279.02" x2="97.8" y2="1023.96"/>
            <line class="cls-3" x1="78.96" y1="-279.02" x2="78.96" y2="1023.96"/>
            <line class="cls-3" x1="60.12" y1="-279.02" x2="60.12" y2="1023.96"/>
            <line class="cls-3" x1="41.27" y1="-279.02" x2="41.27" y2="1023.96"/>
            <line class="cls-3" x1="22.43" y1="-279.02" x2="22.43" y2="1023.96"/>
            <line class="cls-3" x1="3.59" y1="-279.02" x2="3.59" y2="1023.96"/>
          </g>
        </g>
      </g>
    </g>
  </g>
</svg>